<svg xmlns="http://www.w3.org/2000/svg"  viewBox="0 0 64 64" width="250px" height="250px"><linearGradient id="12tGJjPlWM55OzVJp2apda" x1="32" x2="32" y1="10" y2="56" gradientUnits="userSpaceOnUse"><stop offset="0" stop-color="#6dc7ff"/><stop offset=".699" stop-color="#e6abff"/></linearGradient><path fill="url(#12tGJjPlWM55OzVJp2apda)" d="M55,15v36c0,2.76-2.24,5-5,5H14 c-2.76,0-5-2.24-5-5V15c0-2.76,2.24-5,5-5h36C52.76,10,55,12.24,55,15z"/><linearGradient id="12tGJjPlWM55OzVJp2apdb" x1="32" x2="32" y1="4.789" y2="59.82" gradientUnits="userSpaceOnUse"><stop offset="0" stop-color="#1a6dff"/><stop offset="1" stop-color="#c822ff"/></linearGradient><path fill="url(#12tGJjPlWM55OzVJp2apdb)" d="M50,10H14c-2.76,0-5,2.24-5,5v36 c0,2.76,2.24,5,5,5h36c2.76,0,5-2.24,5-5V15C55,12.24,52.76,10,50,10z M52,51c0,1.1-0.9,2-2,2H36.53L52,37.53V51z M31,35v18H14 c-1.1,0-2-0.9-2-2V15c0-1.1,0.9-2,2-2h36c1.1,0,2,0.9,2,2v17.01c0,0-9.09,0.02-11.41,0.02c-2.67,0-5.07-0.01-6.61-0.03 C32.34,32,31,33.35,31,35z"/><path fill="#fff" d="M50,54c1.65,0,3-1.35,3-3V35.12L34.12,54H50z M51,51c0,0.54-0.46,1-1,1H38.95L51,39.95V51z M50,12 H14c-1.65,0-3,1.35-3,3v36c0,1.65,1.35,3,3,3h18V35c0-1.1,0.88-2,1.98-2c0.01,0,0.01,0,0.02,0c1.52,0.02,3.93,0.03,6.61,0.03 c4.3,0,9.28-0.02,12.39-0.02V15C53,13.35,51.65,12,50,12z M34.02,31c-1.11,0-2.11,0.42-2.86,1.18C30.41,32.93,30,33.94,30,35v17 H14c-0.54,0-1-0.46-1-1V15c0-0.54,0.46-1,1-1h36c0.54,0,1,0.46,1,1v16.01c-0.99,0-2.09,0-3.23,0.01c-2.32,0-4.84,0.01-7.16,0.01 c-3.1,0-5.26-0.01-6.58-0.03H34.02z M34.12,54H50c1.65,0,3-1.35,3-3V35.12L34.12,54z M51,51c0,0.54-0.46,1-1,1H38.95L51,39.95V51z M50,12H14c-1.65,0-3,1.35-3,3v36c0,1.65,1.35,3,3,3h18V35c0-1.1,0.88-2,1.98-2c0.01,0,0.01,0,0.02,0 c1.52,0.02,3.93,0.03,6.61,0.03c4.3,0,9.28-0.02,12.39-0.02V15C53,13.35,51.65,12,50,12z M34.02,31c-1.11,0-2.11,0.42-2.86,1.18 C30.41,32.93,30,33.94,30,35v17H14c-0.54,0-1-0.46-1-1V15c0-0.54,0.46-1,1-1h36c0.54,0,1,0.46,1,1v16.01c-0.99,0-2.09,0-3.23,0.01 c-2.32,0-4.84,0.01-7.16,0.01c-3.1,0-5.26-0.01-6.58-0.03H34.02z M50,54c1.65,0,3-1.35,3-3V35.12L34.12,54H50z M51,51 c0,0.54-0.46,1-1,1H38.95L51,39.95V51z M50,12H14c-1.65,0-3,1.35-3,3v36c0,1.65,1.35,3,3,3h18V35c0-1.1,0.88-2,1.98-2 c0.01,0,0.01,0,0.02,0c1.52,0.02,3.93,0.03,6.61,0.03c4.3,0,9.28-0.02,12.39-0.02V15C53,13.35,51.65,12,50,12z M34.02,31 c-1.11,0-2.11,0.42-2.86,1.18C30.41,32.93,30,33.94,30,35v17H14c-0.54,0-1-0.46-1-1V15c0-0.54,0.46-1,1-1h36c0.54,0,1,0.46,1,1 v16.01c-0.99,0-2.09,0-3.23,0.01c-2.32,0-4.84,0.01-7.16,0.01c-3.1,0-5.26-0.01-6.58-0.03H34.02z"/><path fill="#fff" d="M34,50.625V36c0-0.552,0.448-1,1-1h15C50,35,34.15,50.469,34,50.625z"/></svg>